<svg id="Capa_1" data-name="Capa 1" xmlns="http://www.w3.org/2000/svg" viewBox="0 0 512 512"><defs><style>.cls-1{fill:#fff;}</style></defs><polygon class="cls-1" points="403.54 314.91 473.62 244.83 473.62 0 406.36 0 256 338.05 105.64 0 38.38 0 38.38 512 108.45 512 108.45 166 231 440.87 281 440.87 403.54 159.16 403.54 314.91"/><polygon class="cls-1" points="403.54 414.01 403.54 512 473.62 512 473.62 343.93 403.54 414.01"/><path class="cls-1" d="M403.54,342.53l2.13-2.13,21.08,4.75,0,.57-13.21-13.21,2.32-2.32,16.69,16.69L430.42,349l-20.86-4.57,0-.58,13,13-2.32,2.32Z"/><path class="cls-1" d="M438.09,340.48a5.83,5.83,0,0,1-3.6,0,8.91,8.91,0,0,1-3.52-2.29l-1.34-1.34a10,10,0,0,1-2.43-3.61,6,6,0,0,1-.19-3.63,7.43,7.43,0,0,1,2.06-3.36,6.06,6.06,0,0,1,3.29-1.81,6.61,6.61,0,0,1,3.77.55,13,13,0,0,1,3.95,2.83l.78.78-8,8-1.88-1.88,5.81-5.81a5.66,5.66,0,0,0-3-1.52,3,3,0,0,0-2.55.93,3.57,3.57,0,0,0-1.19,2.93,5.33,5.33,0,0,0,1.74,3.2l1.52,1.52a4.32,4.32,0,0,0,3.05,1.49,4.18,4.18,0,0,0,3-1.42,5.27,5.27,0,0,0,1.13-1.7,5.85,5.85,0,0,0,.44-2.06H444a9,9,0,0,1-.67,3.3,8,8,0,0,1-1.75,2.69A8.44,8.44,0,0,1,438.09,340.48Z"/><path class="cls-1" d="M435.68,320l2.45-2.45,10.62,6.4-5.53-11.49,1.63-1.63,11.48,5.54-6.39-10.63,2.44-2.45,8.25,15.6-1.77,1.77-11.14-5.33,5.33,11.14-1.77,1.77Z"/><path class="cls-1" d="M468.08,310.52a5.73,5.73,0,0,1-3.45-.1,8.78,8.78,0,0,1-3.39-2.22l-1.94-1.95a8.71,8.71,0,0,1-2.2-3.35,5.7,5.7,0,0,1-.07-3.44,7.65,7.65,0,0,1,2.05-3.26,7.82,7.82,0,0,1,3.25-2.05,5.62,5.62,0,0,1,3.44.08,8.6,8.6,0,0,1,3.36,2.19l2,2a8.62,8.62,0,0,1,2.21,3.36,5.73,5.73,0,0,1,.08,3.45,7.66,7.66,0,0,1-2,3.26A7.78,7.78,0,0,1,468.08,310.52Zm2.17-6.95a4.51,4.51,0,0,0-1.49-2.83l-2-2a4.45,4.45,0,0,0-2.82-1.48,3.38,3.38,0,0,0-2.66,1.14,3.44,3.44,0,0,0-1.15,2.66,4.45,4.45,0,0,0,1.48,2.82l2,2a4.47,4.47,0,0,0,2.83,1.48,3.86,3.86,0,0,0,3.8-3.8Z"/></svg>